<svg xmlns="http://www.w3.org/2000/svg" xmlns:xlink="http://www.w3.org/1999/xlink" style="isolation:isolate" viewBox="0 0 5 5" version="1.1" shape-rendering="crispEdges"><path d="M0 0h5v5H0V0z" fill="#FFF" /><path d="M0 4h2v1H0V4zm3 0h2v1H3V4z" fill-rule="evenodd" fill="#4DD0E1"/><path d="M0 3h1v1H0V3zm2 0h1v1H2V3zm2 0h1v1H4V3z" fill-rule="evenodd" fill="#4DD0E1"/><path d="M0 2h5v1H0V2z" fill="#4DD0E1"/><path d="M0 1h1v1H0V1zm4 0h1v1H4V1z" fill-rule="evenodd" fill="#4DD0E1"/><path d="M0 0h1v1H0V0zm4 0h1v1H4V0z" fill-rule="evenodd" fill="#4DD0E1"/></svg>