<svg xmlns="http://www.w3.org/2000/svg" xmlns:xlink="http://www.w3.org/1999/xlink" style="isolation:isolate" viewBox="0 0 5 5" version="1.1" shape-rendering="crispEdges"><path d="M0 0h5v5H0V0z" fill="#FFF" /><path d="M1 4h3v1H1V4z" fill="#FFD54F"/><path d="M1 3h3v1H1V3z" fill="#FFD54F"/><path d="M2 2h1v1H2V2z" fill="#FFD54F"/><path d="M0 1h1v1H0V1zm2 0h1v1H2V1zm2 0h1v1H4V1z" fill-rule="evenodd" fill="#FFD54F"/><path d="M0 0h1v1H0V0zm2 0h1v1H2V0zm2 0h1v1H4V0z" fill-rule="evenodd" fill="#FFD54F"/></svg>