<svg xmlns="http://www.w3.org/2000/svg" xmlns:xlink="http://www.w3.org/1999/xlink" style="isolation:isolate" viewBox="0 0 5 5" version="1.1" shape-rendering="crispEdges"><path d="M0 0h5v5H0V0z" fill="#FFF" /><path d="M0 4h2v1H0V4zm3 0h2v1H3V4z" fill-rule="evenodd" fill="#FFB74D"/><path d="M0 3h2v1H0V3zm3 0h2v1H3V3z" fill-rule="evenodd" fill="#FFB74D"/><path d="M1 2h3v1H1V2z" fill="#FFB74D"/><path d="M0 1h5v1H0V1z" fill="#FFB74D"/><path d="M0 0h1v1H0V0zm2 0h1v1H2V0zm2 0h1v1H4V0z" fill-rule="evenodd" fill="#FFB74D"/></svg>